HIERARCHY
ROOT Hips
{
  OFFSET 0 0 0
  CHANNELS 6 Xposition Yposition Zposition Zrotation Yrotation Xrotation
  JOINT LeftThigh
  {
    OFFSET 8.409438 0 -5.917753
    CHANNELS 3 Zrotation Yrotation Xrotation
    JOINT LeftLeg
    {
      OFFSET 0 0 -42.358652
      CHANNELS 3 Zrotation Yrotation Xrotation
      JOINT LeftFoot
      {
        OFFSET 0 0 -39.357303
        CHANNELS 3 Zrotation Yrotation Xrotation
      }
    }
  }
  JOINT RightThigh
  {
    OFFSET -8.409438 0 -5.917753
    CHANNELS 3 Zrotation Yrotation Xrotation
    JOINT RightLeg
    {
      OFFSET 0 0 -42.358652
      CHANNELS 3 Zrotation Yrotation Xrotation
      JOINT RightFoot
      {
        OFFSET 0 0 -39.357303
        CHANNELS 3 Zrotation Yrotation Xrotation
      }
    }
  }
  JOINT SpineLow
  {
    OFFSET 0 0 4.719101
    CHANNELS 3 Zrotation Yrotation Xrotation
    JOINT SpineMid
    {
      OFFSET 0 0 12.899191
      CHANNELS 3 Zrotation Yrotation Xrotation
      JOINT Chest
      {
        OFFSET 0 0 12.899191
        CHANNELS 3 Zrotation Yrotation Xrotation
        JOINT LeftShoulder
        {
          OFFSET 7.550562 1.41573 9.438202
          CHANNELS 3 Zrotation Yrotation Xrotation
          JOINT LeftArm
          {
            OFFSET 9.155056 0 4.247191
            CHANNELS 3 Zrotation Yrotation Xrotation
            JOINT LeftForearm
            {
              OFFSET 0 0 25.771955
              CHANNELS 3 Zrotation Yrotation Xrotation
              JOINT LeftHand
              {
                OFFSET 0 0 25.197169
                CHANNELS 3 Zrotation Yrotation Xrotation
              }
            }
          }
        }
        JOINT RightShoulder
        {
          OFFSET -7.550562 1.41573 9.438202
          CHANNELS 3 Zrotation Yrotation Xrotation
          JOINT RightArm
          {
            OFFSET -9.155056 0 4.247191
            CHANNELS 3 Zrotation Yrotation Xrotation
            JOINT RightForearm
            {
              OFFSET 0 0 -25.771955
              CHANNELS 3 Zrotation Yrotation Xrotation
              JOINT RightHand
              {
                OFFSET 0 0 -25.197169
                CHANNELS 3 Zrotation Yrotation Xrotation
              }
            }
          }
        }
        JOINT Neck
        {
          OFFSET 0 0 15.101124
          CHANNELS 3 Zrotation Yrotation Xrotation
          JOINT Head
          {
            OFFSET 0 0 11.325843
            CHANNELS 3 Zrotation Yrotation Xrotation
            End Site
            {
              OFFSET 0 0 14.157303
            }
          }
        }
      }
    }
  }
}
MOTION
Frames: 7
Frame Time: 0.0
0.0  89.887642  0.0  7.618874  -40.001554  -101.17918  25.560935  -9.118272  13.487262  -0.9139  -0.742788  13.61036  0.448693  -0.541349  1.45786  10.371435  8.939943  -12.774221  6.976023  4.599544  22.009177  -1.483748  0.993024  -1.105075  -0.91478  0.402966  -0.752512  -2.512924  1.072702  -2.071987  -2.512924  1.072702  -2.071987  -27.948002  4.784928  8.107134  14.940526  70.493853  75.510688  -27.442845  -24.92363  115.745718  105.597575  -1.887487  -25.673624  -32.989478  6.725816  31.918744  64.931144  18.014626  48.310245  7.214039  -15.230016  -114.321858  82.516124  13.781759  -23.108753  12.347139  2.853242  8.576805  9.220554  2.314871  6.376686  
0.0  89.887642  0.0  7.579031  -39.818904  -101.114317  25.535898  -9.177031  13.487272  -0.85872  -0.758905  13.513718  0.358194  -0.569308  1.406559  10.917228  9.100979  -12.596005  6.82755  4.514845  22.094512  -1.67979  0.93942  -1.094883  -0.940409  0.400838  -0.774562  -2.583254  1.065215  -2.132575  -2.583254  1.065215  -2.132575  -27.813084  4.940739  8.296978  14.713042  70.525069  75.288476  -27.384487  -24.89751  115.776303  105.581682  -1.964746  -25.696008  -32.865126  6.800589  31.939831  64.671822  17.964417  48.073733  7.290113  -15.265153  -114.366718  82.632159  13.607732  -23.257783  12.428854  2.911511  8.637483  9.280684  2.361008  6.420623  
0.0  89.887642  0.0  7.56971  -39.582502  -101.110672  25.572105  -9.198506  13.570453  -0.926468  -0.843049  13.36331  0.29888  -0.625204  1.410509  11.053342  9.251837  -12.530341  6.605192  4.433185  22.170251  -1.70944  0.92369  -1.081542  -0.947746  0.40016  -0.795743  -2.603619  1.062287  -2.190556  -2.603619  1.062287  -2.190556  -27.905736  5.129937  8.49108  14.464737  70.549061  75.010314  -27.35023  -24.863771  115.73935  105.571793  -2.011378  -25.723597  -32.955421  6.902839  32.001294  64.750674  17.973424  48.085115  7.281799  -15.288633  -114.377185  82.637838  13.57485  -23.322402  12.337281  2.95424  8.720972  9.210977  2.393461  6.482741  
0.0  89.887642  0.0  7.564014  -39.324293  -100.991331  25.308836  -9.180707  13.447787  -0.697144  -0.841036  13.378132  0.195223  -0.625856  1.348314  11.666298  9.491823  -12.291305  6.150838  4.355867  22.115153  -1.869275  0.861484  -1.077426  -0.97241  0.398225  -0.828178  -2.671473  1.054864  -2.279511  -2.671473  1.054864  -2.279511  -27.803334  5.298788  8.677515  14.099875  70.563911  74.717278  -27.281684  -24.836943  115.691621  105.563022  -2.024701  -25.75969  -32.856279  6.988414  31.999121  64.44361  17.878317  47.790999  7.319663  -15.344656  -114.405347  82.751486  13.390917  -23.478556  12.374197  3.00235  8.794144  9.237588  2.431596  6.53645  
0.0  89.887642  0.0  7.553935  -39.05534  -100.989385  25.145994  -9.166038  13.503032  -0.638732  -0.885483  13.283457  0.128104  -0.677855  1.351306  11.638728  9.619045  -12.213348  6.054213  4.276112  22.135503  -1.90854  0.842523  -1.064892  -0.968464  0.399172  -0.841717  -2.660932  1.057041  -2.316492  -2.660932  1.057041  -2.316492  -27.966569  5.448374  8.849221  13.856505  70.606132  74.450447  -27.265472  -24.826056  115.662557  105.56358  -2.048229  -25.760124  -33.008923  7.052326  32.043422  64.510077  17.862789  47.763901  7.302314  -15.367103  -114.388821  82.742086  13.348963  -23.522  12.244898  3.026336  8.861497  9.139932  2.449069  6.587041  
0.0  89.887642  0.0  7.536676  -38.785145  -100.865861  24.743516  -9.133995  13.357903  -0.46904  -0.880731  13.266737  0.118822  -0.61239  1.357589  12.119601  9.729263  -11.950511  5.675545  4.290922  22.021469  -2.033895  0.830202  -1.059916  -0.990325  0.390434  -0.874298  -2.720866  1.03105  -2.405513  -2.720866  1.03105  -2.405513  -27.843057  5.630849  9.014454  13.533148  70.631211  74.213075  -27.206147  -24.793238  115.652971  105.554728  -2.124409  -25.790472  -32.926164  7.156822  32.044433  64.193648  17.731924  47.412845  7.366918  -15.240672  -114.262356  82.768754  13.232848  -23.584766  12.28663  3.06448  8.950727  9.170222  2.480118  6.652987  
0.0  89.887642  0.0  7.513812  -38.541761  -100.840942  24.551794  -9.105731  13.393118  -0.451126  -0.90196  13.180037  0.076455  -0.643954  1.363542  11.979114  9.775655  -11.900278  5.647957  4.284162  22.001583  -2.046738  0.828482  -1.055881  -0.980451  0.38455  -0.88389  -2.693804  1.014941  -2.431335  -2.693803  1.01494  -2.431335  -28.000165  5.758129  9.116081  13.427026  70.666992  74.079134  -27.205927  -24.804772  115.620369  105.560477  -2.136149  -25.817484  -33.073211  7.19987  32.05223  64.276683  17.723233  47.399108  7.343635  -15.251274  -114.244349  82.793399  13.13117  -23.636697  12.179617  3.079539  9.005075  9.089471  2.490922  6.693923  
